Coordinates
version=1
nRows=10
nColumns=40
inDegrees=yes

Units are S.I. units (second, meters, Newtons, ...)
Angles are in degrees.

endheader
time	pelvis_tilt	pelvis_list	pelvis_rotation	pelvis_tx	pelvis_ty	pelvis_tz	hip_flexion_r	hip_adduction_r	hip_rotation_r	knee_angle_r	knee_angle_r_beta	ankle_angle_r	subtalar_angle_r	mtp_angle_r	hip_flexion_l	hip_adduction_l	hip_rotation_l	knee_angle_l	knee_angle_l_beta	ankle_angle_l	subtalar_angle_l	mtp_angle_l	lumbar_extension	lumbar_bending	lumbar_rotation	arm_flex_r	arm_add_r	arm_rot_r	elbow_flex_r	pro_sup_r	wrist_flex_r	wrist_dev_r	arm_flex_l	arm_add_l	arm_rot_l	elbow_flex_l	pro_sup_l	wrist_flex_l	wrist_dev_l
      1.46500000	     -6.60203199	     -2.34492470	     -6.65486015	      1.06581730	      0.91847962	      0.43269215	     30.59952464	     -2.70054216	    -13.08378109	     12.49389765	     12.49389765	      3.00556180	      8.89809777	     11.21693013	      1.06103007	     -3.22146448	    -11.65162887	     12.02604747	     12.02604747	     18.11247384	     -3.79959171	     -5.36431847	    -12.00978096	      2.77945198	      1.96101567	    -13.70926362	    -17.95090606	     -8.77946402	     26.75256819	     47.44629982	      0.00000000	      0.00000000	     18.02867144	    -20.74135639	    -14.88693954	    105.83589089	     48.58923366	      0.00000000	      0.00000000
      1.47650000	     -6.53907725	     -2.20897126	     -6.39400814	      1.06771784	      0.91674505	      0.43458193	     29.99212381	     -2.58591802	    -13.19040128	     12.04518553	     12.04518553	      2.51210974	      9.05971323	     10.99723831	      0.13985675	     -3.12977872	    -11.60791799	     11.70145549	     11.70145549	     18.59900622	     -3.29136840	     -5.32081930	    -11.72933086	      2.66878578	      2.00584415	    -15.21022734	    -17.67357109	     -8.83623635	     26.52828267	     47.42850315	      0.00000000	      0.00000000	     18.41423070	    -20.43930040	    -14.79025699	    106.92167966	     48.61645844	      0.00000000	      0.00000000
      1.48800000	     -6.45336496	     -2.11275886	     -6.11335354	      1.06962525	      0.91510869	      0.43667344	     29.52684043	     -2.50983875	    -13.12569787	     12.18419363	     12.18419363	      1.69797890	      8.91348124	      9.56864127	     -0.69285482	     -3.15602377	    -11.71521161	     11.62401034	     11.62401034	     19.24456768	     -2.50140101	     -5.07250689	    -11.53130446	      2.59349756	      2.11580247	    -16.73977264	    -17.29414616	     -8.95913277	     26.76952741	     47.38587978	      0.00000000	      0.00000000	     18.62906890	    -20.12665637	    -14.45283310	    108.30041870	     48.63928298	      0.00000000	      0.00000000
      1.49950000	     -6.45133261	     -2.18731109	     -5.76267750	      1.07140033	      0.91365608	      0.43891018	     29.19178217	     -2.34050497	    -13.10936922	     12.67570432	     12.67570432	      1.23360550	      8.66731688	      9.15872001	     -1.30376091	     -3.39773359	    -11.46457855	     11.75630248	     11.75630248	     19.67653156	     -2.31727485	     -5.10071894	    -11.19358426	      2.68988579	      1.85708776	    -17.67413069	    -16.92334645	     -8.95689476	     26.59603878	     47.37805798	      0.00000000	      0.00000000	     18.55527652	    -20.11911129	    -14.46448289	    108.58520291	     48.64854188	      0.00000000	      0.00000000
      1.51100000	     -6.42844880	     -2.13890184	     -5.48239748	      1.07306169	      0.91219191	      0.44133181	     29.17070167	     -2.27582069	    -12.37116924	     13.80250571	     13.80250571	      0.16871507	      7.34896363	      6.08856273	     -1.69036481	     -3.62360447	    -11.68171410	     12.40050378	     12.40050378	     20.57050941	     -1.56545850	     -4.56025522	    -11.01113634	      2.63947706	      2.09104098	    -18.89283573	    -16.40476103	     -9.02056711	     27.03415548	     47.32547814	      0.00000000	      0.00000000	     18.60413786	    -19.56001447	    -14.14784669	    110.08068029	     48.67493622	      0.00000000	      0.00000000
      1.52250000	     -6.23718207	     -2.39685548	     -5.16028621	      1.07491635	      0.91139027	      0.44416752	     28.45498299	     -1.79596099	    -11.68141898	     14.01173274	     14.01173274	     -2.50046677	      5.55895259	     -1.24603386	     -2.08596395	     -4.32382573	    -12.16753088	     13.53049857	     13.53049857	     22.03818743	     -0.18175489	     -2.70077791	    -10.98502003	      2.95244911	      2.02701674	    -19.98766309	    -15.97823286	     -9.10507426	     28.32024160	     47.18296674	      0.00000000	      0.00000000	     18.26475581	    -19.43867357	    -13.91870054	    110.46075094	     48.72059028	      0.00000000	      0.00000000
      1.53400000	     -6.04300218	     -2.65120464	     -4.82345099	      1.07655916	      0.91129622	      0.44680573	     28.04683644	     -1.56645541	    -11.64497800	     15.04852079	     15.04852079	     -2.40918052	      5.17435110	     -1.53554142	     -2.68549521	     -4.83393944	    -11.83844535	     14.03400942	     14.03400942	     22.14471740	     -0.32343777	     -2.74466458	    -10.99498957	      3.24509145	      1.90213263	    -20.29704308	    -15.33623848	     -9.00054640	     28.18074890	     47.17360036	      0.00000000	      0.00000000	     17.81274014	    -19.06909614	    -13.81319727	    110.49295258	     48.71384331	      0.00000000	      0.00000000
      1.54550000	     -5.79496680	     -2.94097206	     -4.52631115	      1.07800415	      0.91153273	      0.44972401	     27.73318042	     -1.29662916	    -11.42981139	     16.37823068	     16.37823068	     -1.97945016	      4.52241419	     -1.99251065	     -3.11146989	     -5.45924313	    -11.54625568	     14.95661125	     14.95661125	     22.16365186	     -0.63791914	     -2.81387619	    -11.18677998	      3.51019607	      1.93906490	    -20.34682136	    -14.75175880	     -8.88934970	     28.11495206	     47.16316261	      0.00000000	      0.00000000	     17.23049066	    -18.55100595	    -13.66118890	    110.54506132	     48.70372935	      0.00000000	      0.00000000
      1.55700000	     -6.05040115	     -3.07073380	     -4.24785887	      1.07857236	      0.91098305	      0.45264815	     28.37092950	     -1.05235773	    -10.36666314	     18.25425488	     18.25425488	     -1.52609205	      2.13547917	     -2.47985453	     -2.22834924	     -6.13527720	    -11.22353131	     17.22647776	     17.22647776	     22.43370932	     -1.05002548	     -3.18337350	    -10.88976459	      3.67546115	      2.04050248	    -20.19370449	    -14.41578531	     -8.66114403	     27.92105486	     47.13606834	      0.00000000	      0.00000000	     16.75683908	    -18.02015838	    -13.68577045	    111.03892012	     48.72709353	      0.00000000	      0.00000000
      1.56850000	     -5.81156845	     -3.38274329	     -3.95231068	      1.07957905	      0.91188054	      0.45567361	     27.96086039	     -0.71654841	    -10.23561931	     19.30754002	     19.30754002	     -0.85402492	      1.30636368	     -2.71444019	     -2.15371274	     -6.90261276	    -10.85269813	     18.97659159	     18.97659159	     22.24124047	     -1.54536615	     -3.47167102	    -11.15740730	      3.95665762	      2.09225785	    -19.76428451	    -14.01359551	     -8.50668903	     27.94797436	     47.11908883	      0.00000000	      0.00000000	     15.97359305	    -17.55062907	    -13.57078683	    110.86155788	     48.71689269	      0.00000000	      0.00000000
